<?xml version="1.0" encoding="utf-8"?>
<!-- Uploaded to: SVG Repo, www.svgrepo.com, Generator: SVG Repo Mixer Tools -->
<svg xmlns="http://www.w3.org/2000/svg" viewBox="0 96 256 150" fill="#ffffff" aria-hidden="true" style="display:block">
  <g transform="translate(256,0) scale(-1,1)">
    <path d="M64.538,197.46
      c-12.775,0-23.113,10.338-23.113,23.113c0,12.775,10.338,23.113,23.113,23.113c12.775,0,23.113-10.338,23.113-23.113
      C87.651,207.797,77.314,197.46,64.538,197.46z
      M210.043,196.475
      c-12.775,0-23.113,10.338-23.113,23.113c0,12.775,10.338,23.113,23.113,23.113c12.775,0,23.113-10.338,23.113-23.113
      C233.156,206.813,222.818,196.475,210.043,196.475z
      M2,207.44
      c0,4.481,3.519,8.56,8,8.56h22
      c0.924,0,1.832-1.16,2-2c2.521-14.456,15.326-24.441,30.538-24.441s27.82,10.026,30.341,24.482C95.048,214.966,96.076,216,97,216h33
      V96H2V207.44z
      M252,199h-5v-22c0-7.396-5.52-13-13-13h-24c-0.504,0-1.099-0.268-1.435-0.604l-37.401-36.405
      c-1.681-1.681-3.726-2.906-6.163-2.991h-27v92h40c0.925,0,1.832-1.16,2-2c2.521-14.456,14.83-25.425,30.043-25.425
      s27.82,11.01,30.341,25.466c0.168,0.925,1.691,1.959,2.616,1.959h2c4.791,0,9-4.312,9-9.019v-6.219C254,199.837,253.009,199,252,199
      z
      M191,164h-41c-1.009,0-2-0.991-2-2v-26c0-1.009,0.991-2,2-2h13c0.504,0,1.523,0.555,1.944,0.891L192,161
      C193.009,162.261,192.597,164,191,164z"/>
  </g>
</svg>



